# Blender 5.0.0
# www.blender.org
mtllib HealthPowerup.mtl
o Cube
v 1.000000 8.994105 -1.000000
v 1.000000 8.994105 1.000000
v -1.000000 8.994105 -1.000000
v -1.000000 8.994105 1.000000
v -1.000000 4.997053 -1.000000
v 1.000000 4.997053 -1.000000
v 1.000000 4.997053 1.000000
v -1.000000 4.997053 1.000000
v 1.000000 2.998526 -1.000000
v -1.000000 2.998526 1.000000
v -1.000000 2.998526 -1.000000
v 1.000000 2.998526 1.000000
v 4.391439 2.998526 1.000000
v 4.391439 4.997053 1.000000
v 4.391439 4.997053 -1.000000
v 4.391439 2.998526 -1.000000
v -4.613498 2.998526 -1.000000
v -4.613498 4.997053 -1.000000
v -4.613498 4.997053 1.000000
v -4.613498 2.998526 1.000000
v -1.000000 -1.000000 -1.000000
v -1.000000 -1.000000 1.000000
v 1.000000 -1.000000 -1.000000
v 1.000000 1.000000 -1.000000
v -1.000000 1.000000 1.000000
v 1.000000 1.000000 1.000000
v 1.000000 -1.000000 1.000000
v -1.000000 1.000000 -1.000000
v 1.000000 2.998526 -1.000000
v -1.000000 2.998526 1.000000
v -1.000000 2.998526 -1.000000
v 1.000000 2.998526 1.000000
vn -0.0000 -0.0000 -1.0000
vn -0.0000 1.0000 -0.0000
vn -0.0000 -0.0000 1.0000
vn -1.0000 -0.0000 -0.0000
vn 1.0000 -0.0000 -0.0000
vn -0.0000 -1.0000 -0.0000
vt 0.625000 0.500000
vt 0.625000 0.250000
vt 0.875000 0.500000
vt 0.875000 0.750000
vt 0.625000 0.750000
vt 0.625000 1.000000
vt 0.625000 0.000000
vt 0.375000 0.750000
vt 0.375000 1.000000
vt 0.375000 0.000000
vt 0.375000 0.250000
vt 0.125000 0.500000
vt 0.375000 0.500000
vt 0.125000 0.750000
s 0
usemtl Health_PU
f 6/1/1 5/2/1 3/2/1 1/1/1
f 1/1/2 3/3/2 4/4/2 2/5/2
f 8/6/3 7/5/3 2/5/3 4/6/3
f 5/2/4 8/7/4 4/7/4 3/2/4
f 7/5/5 6/1/5 1/1/5 2/5/5
f 9/1/1 6/1/1 15/1/1 16/1/1
f 5/2/1 11/2/1 17/2/1 18/2/1
f 10/6/3 12/5/3 7/5/3 8/6/3
f 9/1/1 11/2/1 5/2/1 6/1/1
f 12/5/2 10/6/2 30/6/2 32/5/2
f 9/1/2 12/5/2 32/5/2 29/1/2
f 11/2/2 9/1/2 29/1/2 31/2/2
f 10/7/2 11/2/2 31/2/2 30/7/2
f 13/5/5 16/1/5 15/1/5 14/5/5
f 6/1/2 7/5/2 14/5/2 15/1/2
f 12/5/6 9/1/6 16/1/6 13/5/6
f 7/5/3 12/5/3 13/5/3 14/5/3
f 17/2/4 20/7/4 19/7/4 18/2/4
f 10/6/3 8/6/3 19/6/3 20/6/3
f 8/7/2 5/2/2 18/2/2 19/7/2
f 11/2/6 10/7/6 20/7/6 17/2/6
f 27/8/3 26/5/3 25/6/3 22/9/3
f 22/10/4 25/7/4 28/2/4 21/11/4
f 21/12/6 23/13/6 27/8/6 22/14/6
f 23/13/5 24/1/5 26/5/5 27/8/5
f 21/11/1 28/2/1 24/1/1 23/13/1
f 24/1/1 28/2/1 31/2/1 29/1/1
f 25/6/3 26/5/3 32/5/3 30/6/3
f 28/2/4 25/7/4 30/7/4 31/2/4
f 26/5/5 24/1/5 29/1/5 32/5/5
